<?xml version="1.0" standalone="no"?>
<!DOCTYPE svg PUBLIC "-//W3C//DTD SVG 1.1//EN" "http://www.w3.org/Graphics/SVG/1.1/DTD/svg11.dtd" >
<svg xmlns="http://www.w3.org/2000/svg">
<metadata>
This is a custom SVG webfont generated by Font Squirrel.
Copyright   : Copyright c 2012 by Avraham Cornfeld All rights reserved
Designer    : Avraham Cornfeld
Foundry     : Avraham Cornfeld
Foundry URL : httpalefalefalefcoil
</metadata>
<defs>
<font id="redial-bold" horiz-adv-x="682" >
<font-face units-per-em="2048" ascent="1638" descent="-410" />
<missing-glyph horiz-adv-x="537" />
<glyph unicode=" "  horiz-adv-x="537" />
<glyph unicode="&#x09;" horiz-adv-x="537" />
<glyph unicode="&#xa0;" horiz-adv-x="537" />
<glyph unicode="!" horiz-adv-x="519" d="M96 0v279h324v-279h-324zM126 457v604h264v-604h-264z" />
<glyph unicode="&#x22;" horiz-adv-x="726" d="M67 742l72 551h179l-1 -246l-110 -305h-140zM379 742l72 551h180l-1 -246l-110 -305h-141z" />
<glyph unicode="#" horiz-adv-x="1157" d="M-12 249l40 188h187l42 194h-187l37 190h189l51 240h211l-58 -240h258l53 240h204l-51 -240h185l-39 -190h-188l-41 -194h188l-39 -188h-189l-53 -249h-202l54 249h-262l-54 -249h-202l53 249h-187zM409 421h263l52 223h-265z" />
<glyph unicode="$" horiz-adv-x="1095" d="M104 749q0 142 89.5 227t235.5 85h66v132h159v-132h338v-207h-338v-248q10 -4 46 -16.5t50 -18t47.5 -19t49 -22t43.5 -24t42.5 -28t34 -31.5t29 -37t17.5 -41.5t10 -48.5q8 -147 -70 -233.5t-224 -86.5h-75v-124h-159v124h-360v209h360q0 39 0.5 123t0.5 125q-4 1 -13 4 t-13 4q-12 4 -37 12q-44 14 -67 22t-63.5 24t-63.5 29.5t-52.5 35t-45 43.5t-26.5 52.5t-11 65.5zM317 772q0 -12 5.5 -22.5t18 -20t23.5 -16.5t32 -15t32.5 -12.5t35.5 -12.5t31 -10v191h-67q-61 0 -86 -20t-25 -62zM654 208q104 1 132.5 13.5t30.5 58.5q2 39 -75 76 q-19 9 -88 36v-184z" />
<glyph unicode="%" horiz-adv-x="1327" d="M72 750v115q0 86 73 146.5t175 60.5q104 0 176 -60t72 -147v-115q0 -87 -72 -147t-176 -60q-102 0 -175 60.5t-73 146.5zM186 0l686 1061h264l-686 -1061h-264zM255 770q0 -24 20 -41t49 -17q26 0 45 17.5t19 40.5v76q0 23 -19 39t-45 16q-29 0 -49 -16t-20 -39v-76z M760 194v115q0 86 73 146.5t175 60.5q104 0 176 -60t72 -147v-115q0 -87 -72 -147t-176 -60q-102 0 -175 60.5t-73 146.5zM943 214q0 -24 20 -41t49 -17q26 0 45 17.5t19 40.5v76q0 23 -19 39t-45 16q-29 0 -49 -16t-20 -39v-76z" />
<glyph unicode="&#x26;" horiz-adv-x="1227" d="M88 332q5 61 33.5 117.5t72 98.5t85.5 72t87 53q-23 42 -65 131q-52 110 12.5 182.5t211.5 72.5h544v-337h-243v111h-188q-48 0 -59.5 -18t9.5 -58q38 -63 114.5 -193.5t106.5 -180.5q32 86 32 130h224q0 -102 -38 -190.5t-99 -149.5l104 -173h-266l-47 67 q-135 -76 -292 -82q-157 -7 -250 89t-89 258zM320 326q1 -65 43 -112t102 -52q36 -3 72.5 9t99.5 42l-181 311q-64 -41 -100.5 -88t-35.5 -110z" />
<glyph unicode="'" horiz-adv-x="410" d="M51 741l71 551h217l-1 -243l-140 -308h-147z" />
<glyph unicode="(" horiz-adv-x="704" d="M159 79v891q6 211 120 324t333 108h91v-191h-88q-104 0 -156.5 -50.5t-52.5 -159.5v-954q0 -108 47.5 -151.5t161.5 -45.5h86v-189h-89q-237 0 -345 101.5t-108 316.5z" />
<glyph unicode=")" horiz-adv-x="690" d="M4 1211v191h91q219 6 333.5 -108t119.5 -324v-891q0 -215 -108 -316.5t-345 -101.5h-89v189h86q111 0 159 43t50 154v954q0 109 -52.5 159.5t-156.5 50.5h-88z" />
<glyph unicode="*" horiz-adv-x="797" d="M26 1161l76 229q42 -15 86 -39t80 -47.5t45 -27.5q-3 14 -13.5 62.5t-19 94t-9.5 78.5h245q-1 -34 -9.5 -80.5t-19.5 -93.5t-13 -61h1q10 5 48 29t81.5 47t84.5 37l72 -225q-37 -13 -84.5 -21.5t-95 -14.5t-55.5 -7q7 -6 40.5 -32.5t70.5 -59t64 -65.5l-200 -141 q-18 25 -39.5 66t-42 84.5t-27.5 56.5q-6 -12 -25 -55t-39.5 -83.5t-40.5 -67.5l-196 141q33 43 99 98t70 62q-3 0 -93.5 11.5t-140.5 24.5z" />
<glyph unicode="+" horiz-adv-x="1014" d="M98 439v173h310v313h183v-313h310v-173h-310v-309h-183v309h-310z" />
<glyph unicode="," horiz-adv-x="530" d="M96 -325l92 551h195l-1 -244l-128 -307h-158z" />
<glyph unicode="-" horiz-adv-x="894" d="M65 445v214h759v-214h-759z" />
<glyph unicode="." horiz-adv-x="585" d="M145 -1v272h291v-272h-291z" />
<glyph unicode="/" horiz-adv-x="628" d="M-42 -340l511 1739h233l-510 -1739h-234z" />
<glyph unicode="0" horiz-adv-x="1098" d="M128 377v319q0 172 121 281t300 109t300.5 -109t121.5 -281v-319q0 -172 -121.5 -281t-300.5 -109t-300 109t-121 281zM385 364q0 -67 48 -111.5t116 -44.5t116.5 44.5t48.5 111.5v344q0 68 -48.5 112t-116.5 44t-116 -44t-48 -112v-344z" />
<glyph unicode="1" horiz-adv-x="745" d="M37 576l247 485h238q48 0 67 -17.5t19 -63.5v-980h-240v698l24 167l-138 -289h-217z" />
<glyph unicode="2" horiz-adv-x="914" d="M112 0v185l440 530l-2 -1q42 50 28.5 85.5t-86.5 35.5h-380v225h416q287 0 304 -232q4 -57 -28.5 -123.5t-104.5 -167.5l-266 -312h377v-225h-698z" />
<glyph unicode="3" horiz-adv-x="911" d="M113 0v192h326q86 0 122.5 46t36.5 108q0 59 -42.5 103t-122.5 44h-121v146l235 217h-432v204h686v-204l-253 -223q65 -3 121.5 -34.5t92.5 -79.5t54.5 -104.5t12.5 -109.5q-16 -152 -117 -228.5t-267 -76.5h-332z" />
<glyph unicode="4" horiz-adv-x="993" d="M55 196v204l409 609l-1 -1q25 35 44 44t62 9h230v-659h122v-206h-122l9 -196h-225l-9 196h-519zM286 398h291v457q-32 -48 -137.5 -219.5t-153.5 -237.5z" />
<glyph unicode="5" horiz-adv-x="968" d="M135 0v228h336q59 0 98 36t39 99q0 59 -39.5 96.5t-97.5 37.5h-330v564h670v-227h-447v-117h122q169 0 272 -101t103 -253q0 -161 -107.5 -262t-278.5 -101h-340z" />
<glyph unicode="6" horiz-adv-x="928" d="M68 340q0 89 34 154l320 567h285l-258 -413q45 8 73 8q153 0 238 -85.5t85 -232.5q0 -155 -113 -252t-275 -97t-275.5 98t-113.5 253zM302 340q0 -59 47 -104.5t106 -45.5t109.5 45.5t50.5 104.5q0 60 -46.5 104t-106.5 44q-66 0 -113 -43.5t-47 -104.5z" />
<glyph unicode="7" horiz-adv-x="936" d="M62 833v228h774v-186l-343 -875h-271l326 834z" />
<glyph unicode="8" horiz-adv-x="1027" d="M111 322q0 68 51 143.5t116 96.5q-56 22 -100.5 84.5t-44.5 118.5q0 146 107 229t272 83t271.5 -83t106.5 -229q0 -72 -36.5 -127.5t-95.5 -73.5q60 -26 108 -98t48 -144q0 -148 -116 -241.5t-286 -93.5t-285.5 93.5t-115.5 241.5zM343 331q0 -64 50.5 -109t118.5 -45 t119 45t51 109q0 63 -50.5 102.5t-119.5 39.5t-119 -39.5t-50 -102.5zM360 765q0 -57 45 -93t107 -36q63 0 107 35.5t44 93.5q0 55 -45 93t-106 38q-60 0 -106 -38t-46 -93z" />
<glyph unicode="9" horiz-adv-x="933" d="M80 722q0 103 53.5 184t141.5 124t193 43q162 0 277.5 -98.5t115.5 -252.5q0 -85 -38 -158l-318 -563h-275l236 405l-47 -2q-149 5 -244 90.5t-95 227.5zM321 722q0 -60 47 -104t105 -44q64 0 106 43t42 105q0 59 -46.5 105t-104.5 46q-57 0 -103 -46t-46 -105z" />
<glyph unicode=":" horiz-adv-x="569" d="M138 548v287h297v-287h-297zM139 0v287h297v-287h-297z" />
<glyph unicode=";" horiz-adv-x="569" d="M98 -276l72 551h221l-1 -245l-129 -306h-163zM147 548v287h296v-287h-296z" />
<glyph unicode="&#x3c;" horiz-adv-x="1062" d="M102 405v159l850 420v-274l-488 -228l487 -226l1 -271z" />
<glyph unicode="=" horiz-adv-x="940" d="M117 243v213h695v-213h-695zM117 600v213h695v-213h-695z" />
<glyph unicode="&#x3e;" horiz-adv-x="1076" d="M138 -15l1 271l487 226l-488 228v274l850 -420v-159z" />
<glyph unicode="?" horiz-adv-x="934" d="M97 839v222h478q171 0 235 -93q51 -75 36 -166t-90 -157q-32 -28 -104.5 -87t-107.5 -90v-75h-289v118l332 267q22 20 14.5 40.5t-40.5 20.5h-464zM235 0v257h331v-257h-331z" />
<glyph unicode="@" horiz-adv-x="1690" d="M184 78v889q0 188 132 310t360 122h807v-1399h-477q-172 0 -247.5 67t-83.5 211l10 404q8 143 78.5 204t242.5 61h233v229h-551q-107 0 -172 -57t-65 -153v-886q0 -197 207 -197h125v-223h-137q-227 0 -344.5 99.5t-117.5 318.5zM930 314q0 -53 20.5 -76.5t76.5 -23.5 h207v514h-207q-56 0 -76.5 -24t-20.5 -77v-313z" />
<glyph unicode="A" horiz-adv-x="1125" d="M15 0l403 1061h283l403 -1061h-277l-61 189h-415q-2 -6 -6.5 -20.5t-18.5 -59t-36 -109.5h-275zM421 387h276l-137 460z" />
<glyph unicode="B" horiz-adv-x="1130" d="M154 0v1062l529 -1q140 0 231.5 -81t91.5 -211q0 -160 -147 -210q170 -53 170 -250q0 -135 -93.5 -222t-233.5 -87h-548zM398 215h276q44 0 73.5 29t29.5 82t-31.5 84t-74.5 31h-273v-226zM398 646h259q43 0 72 25.5t29 78.5q0 47 -26 71t-66 24h-268v-199z" />
<glyph unicode="C" horiz-adv-x="1023" d="M145 324v426q0 153 93 232t276 79h413v-228h-400q-66 0 -94.5 -22t-28.5 -73v-415q0 -51 28.5 -73.5t94.5 -22.5h400v-227h-413q-191 0 -280 72.5t-89 251.5z" />
<glyph unicode="D" horiz-adv-x="1166" d="M166 0v1061h508q177 0 275 -94.5t98 -247.5v-377q0 -153 -98 -247.5t-275 -94.5h-508zM420 224h239q67 0 102.5 39t35.5 100v347q0 58 -35 92t-103 34h-239v-612z" />
<glyph unicode="E" horiz-adv-x="1065" d="M153 215v846h791v-226h-537v-177h455v-226h-455v-167q0 -22 7.5 -30t24.5 -8h505v-227h-549q-117 0 -179.5 57t-62.5 158z" />
<glyph unicode="F" horiz-adv-x="991" d="M157 0v1061h768v-228h-511v-217h452v-226h-448v-390h-261z" />
<glyph unicode="G" horiz-adv-x="1123" d="M150 326v422q0 313 364 313h461v-229h-468q-61 0 -83.5 -22t-22.5 -76v-413q0 -54 22 -75.5t84 -21.5h233v233h-191v191h426v-648h-461q-190 0 -277 73t-87 253z" />
<glyph unicode="H" horiz-adv-x="1179" d="M162 0v1061h259v-398h340v398h256v-1061h-256v437h-340v-437h-259z" />
<glyph unicode="I" horiz-adv-x="560" d="M151 0v1061h263v-1061h-263z" />
<glyph unicode="J" horiz-adv-x="753" d="M67 0v227h226q31 0 43.5 20.5t12.5 63.5v522h-191v228h447v-790q0 -149 -68 -210t-209 -61h-261z" />
<glyph unicode="K" horiz-adv-x="1145" d="M164 0v1061h260v-502l351 502h311l-362 -507l399 -554h-335l-364 553v-553h-260z" />
<glyph unicode="L" horiz-adv-x="969" d="M157 231v830h264v-796q0 -38 32 -38h487v-227h-524q-117 0 -188 65t-71 166z" />
<glyph unicode="M" horiz-adv-x="1480" d="M172 0v1061h362l213 -752l220 753l350 -1v-1061h-220v834l-243 -834h-219l-244 832v-832h-219z" />
<glyph unicode="N" horiz-adv-x="1215" d="M161 0v1061h302l382 -807v807h224v-1061h-318l-367 796v-796h-223z" />
<glyph unicode="O" horiz-adv-x="1107" d="M121 353v358q0 149 127.5 254t308.5 105t307.5 -105t126.5 -254v-358q0 -149 -126.5 -254t-307.5 -105t-308.5 105t-127.5 254zM378 349q0 -62 46.5 -104.5t132.5 -42.5q85 0 131.5 42.5t46.5 104.5v365q0 59 -49.5 102.5t-128.5 43.5q-95 0 -137 -41t-42 -105v-365z" />
<glyph unicode="P" horiz-adv-x="1058" d="M154 0v1061h479q143 0 244 -100t101 -242t-100 -242t-243 -100h-217v-377h-264zM406 599h231q44 0 75.5 32.5t31.5 87.5q0 56 -28 90.5t-79 34.5h-231v-245z" />
<glyph unicode="Q" horiz-adv-x="1148" d="M119 385v289q0 190 123 296t324 106q199 0 314 -105.5t115 -296.5v-221q0 -64 -32 -135.5t-94 -110.5l118 22h116v-230q-555 0 -558 1q-196 5 -311 103.5t-115 281.5zM377 368q0 -72 52.5 -121.5t136.5 -49.5q83 0 136.5 46t53.5 116v331q0 76 -49.5 127.5t-140.5 51.5 q-81 0 -135 -53t-54 -126v-322z" />
<glyph unicode="R" horiz-adv-x="1161" d="M172 0v1061h504q177 0 261.5 -90.5t84.5 -241.5q0 -89 -50 -167.5t-140 -100.5q40 -8 69 -41t44 -74l119 -346h-275q-84 274 -97 318q-5 16 -9.5 25t-13.5 22t-24 19t-36 6h-177v-390h-260zM425 589h240q54 0 89.5 32t35.5 95q0 59 -33 97t-82 38h-250v-262z" />
<glyph unicode="S" horiz-adv-x="1096" d="M114 779q0 140 86 211t236 71h508v-227h-472q-44 0 -65 -12.5t-21 -48.5q0 -9 6 -18.5t18.5 -19t25.5 -17.5t35 -18t39 -17.5t44.5 -19.5t44.5 -20q108 -49 170.5 -83t111.5 -74.5t69.5 -83.5t23.5 -101q1 -14 1 -28q0 -119 -70 -192q-78 -81 -225 -81h-542v228h471 q26 0 38.5 1t27 6.5t20.5 18t7 33.5q0 17 -10 32.5t-34.5 31t-43 25.5t-59 28.5t-58.5 27.5q-31 15 -82.5 39t-77 36.5t-63.5 33t-57 35.5t-42.5 38t-34.5 45.5t-18.5 53t-7.5 66.5z" />
<glyph unicode="T" horiz-adv-x="984" d="M64 834v227h865v-227h-292v-834h-263v834h-310z" />
<glyph unicode="U" horiz-adv-x="1141" d="M130 352v709h258v-713q0 -65 52 -110t125 -45t125.5 45t52.5 110v713h258v-709q0 -150 -127.5 -255.5t-308.5 -105.5t-308 105.5t-127 255.5z" />
<glyph unicode="V" horiz-adv-x="1082" d="M26 1061h261l254 -801l248 801h248q-301 -905 -334 -996q-24 -65 -90 -65h-207z" />
<glyph unicode="W" horiz-adv-x="1469" d="M58 1061h271l115 -803l160 803h266l159 -802l115 802h271l-212 -1061h-341l-126 799l-111 -731v2q-10 -39 -31 -54.5t-59 -15.5h-269z" />
<glyph unicode="X" horiz-adv-x="1082" d="M11 1061h308l223 -361l222 361h307l-380 -530l379 -531h-306l-224 381l-221 -381h-305l377 530z" />
<glyph unicode="Y" horiz-adv-x="1016" d="M1 1061h294l215 -423l213 423h295l-377 -629v-432h-263v431q-135 223 -377 630z" />
<glyph unicode="Z" horiz-adv-x="1068" d="M104 834l2 227h857v-226l-582 -607h579v-228h-854v252l593 582h-595z" />
<glyph unicode="[" horiz-adv-x="569" d="M105 -341v1744h451v-219h-203v-1309h203v-216h-451z" />
<glyph unicode="\" horiz-adv-x="614" d="M-32 1401h233l461 -1742h-234z" />
<glyph unicode="]" horiz-adv-x="569" d="M5 -145h203v1348h-203v199h451v-1743h-451v196z" />
<glyph unicode="^" horiz-adv-x="961" d="M2 754l369 649h217l372 -649h-283l-198 422l-193 -422h-284z" />
<glyph unicode="_" horiz-adv-x="1139" d="M-1 -1v224h1143v-224h-1143z" />
<glyph unicode="`" horiz-adv-x="428" d="M50 741l71 551h217l-1 -243l-140 -308h-147z" />
<glyph unicode="a" horiz-adv-x="1141" d="M27 0l403 1061h283l403 -1061h-277l-61 189h-415q-2 -6 -6.5 -20.5t-18.5 -59t-36 -109.5h-275zM433 387h276l-137 460z" />
<glyph unicode="b" horiz-adv-x="1132" d="M155 0v1062l529 -1q140 0 231.5 -81t91.5 -211q0 -160 -147 -210q170 -53 170 -250q0 -135 -93.5 -222t-233.5 -87h-548zM399 215h276q44 0 73.5 29t29.5 82t-31.5 84t-74.5 31h-273v-226zM399 646h259q43 0 72 25.5t29 78.5q0 47 -26 71t-66 24h-268v-199z" />
<glyph unicode="c" horiz-adv-x="1036" d="M146 324v426q0 153 93 232t276 79h413v-228h-400q-66 0 -94.5 -22t-28.5 -73v-415q0 -51 28.5 -73.5t94.5 -22.5h400v-227h-413q-191 0 -280 72.5t-89 251.5z" />
<glyph unicode="d" horiz-adv-x="1173" d="M168 0v1061h508q177 0 275 -94.5t98 -247.5v-377q0 -153 -98 -247.5t-275 -94.5h-508zM422 224h239q67 0 102.5 39t35.5 100v347q0 58 -35 92t-103 34h-239v-612z" />
<glyph unicode="e" horiz-adv-x="1065" d="M153 215v846h791v-226h-537v-177h455v-226h-455v-167q0 -22 7.5 -30t24.5 -8h505v-227h-549q-117 0 -179.5 57t-62.5 158z" />
<glyph unicode="f" horiz-adv-x="1016" d="M157 0v1061h768v-228h-511v-217h452v-226h-448v-390h-261z" />
<glyph unicode="g" horiz-adv-x="1122" d="M150 326v422q0 313 364 313h461v-229h-468q-61 0 -83.5 -22t-22.5 -76v-413q0 -54 22 -75.5t84 -21.5h233v233h-191v191h426v-648h-461q-190 0 -277 73t-87 253z" />
<glyph unicode="h" horiz-adv-x="1182" d="M162 0v1061h259v-398h340v398h256v-1061h-256v437h-340v-437h-259z" />
<glyph unicode="i" horiz-adv-x="562" d="M153 0v1061h263v-1061h-263z" />
<glyph unicode="j" horiz-adv-x="761" d="M73 0v227h226q31 0 43.5 20.5t12.5 63.5v522h-191v228h447v-790q0 -149 -68 -210t-209 -61h-261z" />
<glyph unicode="k" horiz-adv-x="1136" d="M163 0v1061h260v-502l351 502h311l-362 -507l399 -554h-335l-364 553v-553h-260z" />
<glyph unicode="l" horiz-adv-x="969" d="M157 231v830h264v-796q0 -38 32 -38h487v-227h-524q-117 0 -188 65t-71 166z" />
<glyph unicode="m" horiz-adv-x="1470" d="M161 0v1061h362l213 -752l220 753l350 -1v-1061h-220v834l-243 -834h-219l-244 832v-832h-219z" />
<glyph unicode="n" horiz-adv-x="1209" d="M152 0v1061h302l382 -807v807h224v-1061h-318l-367 796v-796h-223z" />
<glyph unicode="o" horiz-adv-x="1093" d="M112 353v358q0 149 127.5 254t308.5 105t307.5 -105t126.5 -254v-358q0 -149 -126.5 -254t-307.5 -105t-308.5 105t-127.5 254zM369 349q0 -62 46.5 -104.5t132.5 -42.5q85 0 131.5 42.5t46.5 104.5v365q0 59 -49.5 102.5t-128.5 43.5q-95 0 -137 -41t-42 -105v-365z" />
<glyph unicode="p" horiz-adv-x="1057" d="M154 0v1061h479q143 0 244 -100t101 -242t-100 -242t-243 -100h-217v-377h-264zM406 599h231q44 0 75.5 32.5t31.5 87.5q0 56 -28 90.5t-79 34.5h-231v-245z" />
<glyph unicode="q" horiz-adv-x="1148" d="M119 385v289q0 190 123 296t324 106q199 0 314 -105.5t115 -296.5v-221q0 -64 -32 -135.5t-94 -110.5l118 22h116v-230q-555 0 -558 1q-196 5 -311 103.5t-115 281.5zM377 368q0 -72 52.5 -121.5t136.5 -49.5q83 0 136.5 46t53.5 116v331q0 76 -49.5 127.5t-140.5 51.5 q-81 0 -135 -53t-54 -126v-322z" />
<glyph unicode="r" horiz-adv-x="1161" d="M172 0v1061h504q177 0 261.5 -90.5t84.5 -241.5q0 -89 -50 -167.5t-140 -100.5q40 -8 69 -41t44 -74l119 -346h-275q-84 274 -97 318q-5 16 -9.5 25t-13.5 22t-24 19t-36 6h-177v-390h-260zM425 589h240q54 0 89.5 32t35.5 95q0 59 -33 97t-82 38h-250v-262z" />
<glyph unicode="s" horiz-adv-x="1099" d="M114 779q0 140 86 211t236 71h508v-227h-472q-44 0 -65 -12.5t-21 -48.5q0 -9 6 -18.5t18.5 -19t25.5 -17.5t35 -18t39 -17.5t44.5 -19.5t44.5 -20q108 -49 170.5 -83t111.5 -74.5t69.5 -83.5t23.5 -101q1 -14 1 -28q0 -119 -70 -192q-78 -81 -225 -81h-542v228h471 q26 0 38.5 1t27 6.5t20.5 18t7 33.5q0 17 -10 32.5t-34.5 31t-43 25.5t-59 28.5t-58.5 27.5q-31 15 -82.5 39t-77 36.5t-63.5 33t-57 35.5t-42.5 38t-34.5 45.5t-18.5 53t-7.5 66.5z" />
<glyph unicode="t" horiz-adv-x="984" d="M64 834v227h865v-227h-292v-834h-263v834h-310z" />
<glyph unicode="u" horiz-adv-x="1138" d="M130 352v709h258v-713q0 -65 52 -110t125 -45t125.5 45t52.5 110v713h258v-709q0 -150 -127.5 -255.5t-308.5 -105.5t-308 105.5t-127 255.5z" />
<glyph unicode="v" horiz-adv-x="1085" d="M26 1061h261l254 -801l248 801h248q-301 -905 -334 -996q-24 -65 -90 -65h-207z" />
<glyph unicode="w" horiz-adv-x="1466" d="M58 1061h271l115 -803l160 803h266l159 -802l115 802h271l-212 -1061h-341l-126 799l-111 -731v2q-10 -39 -31 -54.5t-59 -15.5h-269z" />
<glyph unicode="x" horiz-adv-x="1085" d="M11 1061h308l223 -361l222 361h307l-380 -530l379 -531h-306l-224 381l-221 -381h-305l377 530z" />
<glyph unicode="y" horiz-adv-x="1016" d="M1 1061h294l215 -423l213 423h295l-377 -629v-432h-263v431q-135 223 -377 630z" />
<glyph unicode="z" horiz-adv-x="1069" d="M104 834l2 227h857v-226l-582 -607h579v-228h-854v252l593 582h-595z" />
<glyph unicode="{" horiz-adv-x="684" d="M50 436v179q131 45 131 114v236q0 212 90 319t301 103h-1h91v-182h-82q-96 0 -131.5 -43.5t-35.5 -155.5v-254q0 -69 -42 -134.5t-104 -88.5q60 -14 103 -83t43 -135v-275v1q3 -95 39.5 -138.5t120.5 -43.5h87v-180h-82q-121 0 -199 24.5t-121.5 79t-60 128t-16.5 186.5 v239q0 36 -37.5 63t-93.5 41z" />
<glyph unicode="|" horiz-adv-x="532" d="M178 -325v1708h170v-1708h-170z" />
<glyph unicode="}" horiz-adv-x="710" d="M22 1214v173h90h-1q211 4 301.5 -103t90.5 -319v-236q0 -69 131 -114v-179q-56 -14 -93.5 -41t-37.5 -63v-239q0 -113 -16.5 -186.5t-60 -128t-121.5 -79t-199 -24.5h-82v171h87q83 0 119.5 46.5t40.5 143.5v-1v276q0 68 42 138t104 80q-60 13 -103 82.5t-43 140.5v254 q0 114 -36 161t-131 47h-82z" />
<glyph unicode="&#xa3;" horiz-adv-x="1068" d="M175 425v188h115v138q0 158 85 234.5t269 76.5h383v-291h-234l-1 64h-158q-66 0 -94.5 -22.5t-28.5 -73.5v-126h237l-1 -188h-244l-75 -217h428v-208h-661v223l82 202h-102z" />
<glyph unicode="&#xa5;" horiz-adv-x="1139" d="M36 1061h231l206 -358l28 -55l30 60l197 353h240l-328 -527h236v-100h-267v-80h267v-90h-267v-264h-211v264h-269v90h269v80h-269v100h235z" />
<glyph unicode="&#xab;" horiz-adv-x="744" d="M66 742l72 551h179l-1 -246l-110 -305h-140zM378 742l72 551h180l-1 -246l-110 -305h-141z" />
<glyph unicode="&#xad;" horiz-adv-x="894" d="M65 445v214h759v-214h-759z" />
<glyph unicode="&#xb0;" horiz-adv-x="819" d="M128 1214q0 115 81 196q83 81 196 81q116 0 197 -81t81 -196t-82 -197q-81 -81 -196 -81q-113 0 -196 81q-81 81 -81 197zM262 1214q0 -60 42 -102t102 -42q59 0 101 42t42 102t-42 102t-101 42q-60 0 -102 -42t-42 -102z" />
<glyph unicode="&#xb4;" horiz-adv-x="426" d="M50 741l71 551h217l-1 -243l-140 -308h-147z" />
<glyph unicode="&#xbb;" horiz-adv-x="732" d="M66 742l72 551h179l-1 -246l-110 -305h-140zM378 742l72 551h180l-1 -246l-110 -305h-141z" />
<glyph unicode="&#x2c6;" d="M-9 1115l240 378h212l251 -378h-264l-87 194l-88 -194h-264z" />
<glyph unicode="&#x2da;" horiz-adv-x="537" d="M-278 400q0 115 81 196q83 81 196 81q116 0 197 -81t81 -196t-82 -197q-81 -81 -196 -81q-113 0 -196 81q-81 81 -81 197zM-144 400q0 -60 42 -102t102 -42q59 0 101 42t42 102t-42 102t-101 42q-60 0 -102 -42t-42 -102z" />
<glyph unicode="&#x2dc;" d="M-3 1197q-2 140 61 205v-1q62 68 159 68q67 0 173 -54q50 -25 76 -25q18 0 27.5 17.5t15.5 64.5h178q-3 -132 -61 -202t-153 -70q-65 0 -171 56q-60 31 -79 31t-31 -14q-13 -15 -12 -76h-183z" />
<glyph unicode="&#x5b0;" d="M257 -174q0 33 22.5 58.5t61.5 25.5q36 0 60 -24t24 -60q0 -35 -24 -59.5t-60 -24.5t-60 24.5t-24 59.5zM257 -436q0 36 24 60t60 24t60 -24t24 -60q0 -35 -24 -59.5t-60 -24.5t-60 24.5t-24 59.5z" />
<glyph unicode="&#x5b1;" d="M0 -174q0 33 22.5 58.5t61.5 25.5q35 0 59.5 -24t24.5 -60q0 -35 -24.5 -59.5t-59.5 -24.5q-36 0 -60 24.5t-24 59.5zM132 -436q0 33 23 58.5t61 25.5q33 0 58.5 -22.5t25.5 -61.5q0 -35 -24 -59.5t-60 -24.5q-35 0 -59.5 24.5t-24.5 59.5zM267 -174q0 36 24 60t60 24 q34 0 59 -23t25 -61q0 -35 -24 -59.5t-60 -24.5t-60 24.5t-24 59.5zM514 -174q0 36 24 60t60 24q39 0 61.5 -25.5t22.5 -58.5q0 -35 -24 -59.5t-60 -24.5q-35 0 -59.5 24.5t-24.5 59.5zM514 -436q0 36 24 60t60 24q34 0 59 -23t25 -61q0 -35 -24 -59.5t-60 -24.5 q-32 0 -58 23.5t-26 60.5z" />
<glyph unicode="&#x5b2;" d="M49 -100h336v-104h-336v104zM465 -174q0 36 24 60t60 24q38 0 61 -25.5t23 -58.5t-23 -58.5t-61 -25.5q-36 0 -60 24.5t-24 59.5zM465 -436q0 34 22.5 59t61.5 25q33 0 58.5 -23t25.5 -61q0 -33 -23 -58.5t-61 -25.5q-33 0 -58.5 23.5t-25.5 60.5z" />
<glyph unicode="&#x5b3;" d="M49 -100h336v-104h-107v-148h-116v148h-113v104zM465 -174q0 36 24 60t60 24q38 0 61 -25.5t23 -58.5t-23 -58.5t-61 -25.5q-36 0 -60 24.5t-24 59.5zM465 -436q0 34 22.5 59t61.5 25q33 0 58.5 -23t25.5 -61q0 -33 -23 -58.5t-61 -25.5q-33 0 -58.5 23.5t-25.5 60.5z " />
<glyph unicode="&#x5b4;" d="M257 -315q0 33 22.5 58.5t61.5 25.5q36 0 60 -24t24 -60q0 -35 -24 -59.5t-60 -24.5t-60 24.5t-24 59.5z" />
<glyph unicode="&#x5b5;" d="M126 -245q0 36 24 60t60 24q33 0 58.5 -22.5t25.5 -61.5q0 -35 -24 -59.5t-60 -24.5t-60 24.5t-24 59.5zM388 -245q0 34 23 59t61 25t61 -25.5t23 -58.5q0 -35 -24 -59.5t-60 -24.5q-33 0 -58.5 23.5t-25.5 60.5z" />
<glyph unicode="&#x5b6;" d="M126 -174q0 36 24 60t60 24q33 0 58.5 -22.5t25.5 -61.5q0 -35 -24 -59.5t-60 -24.5t-60 24.5t-24 59.5zM257 -386q0 36 24 60t60 24t60 -24t24 -60q0 -35 -24 -59.5t-60 -24.5t-60 24.5t-24 59.5zM388 -174q0 34 23 59t61 25t61 -25.5t23 -58.5q0 -35 -24 -59.5 t-60 -24.5q-33 0 -58.5 23.5t-25.5 60.5z" />
<glyph unicode="&#x5b7;" d="M140 -251h402v-104h-402v104z" />
<glyph unicode="&#x5b8;" d="M140 -198h402v-104h-142v-168h-116v168h-144v104z" />
<glyph unicode="&#x5b9;" d="M257 1346q0 35 24 59.5t60 24.5q33 0 58.5 -23.5t25.5 -60.5q0 -36 -24 -60t-60 -24q-35 0 -59.5 24t-24.5 60z" />
<glyph unicode="&#x5bb;" d="M16 -175q0 33 23.5 58.5t60.5 25.5q34 0 59 -22.5t25 -61.5q0 -35 -24 -59.5t-60 -24.5q-35 0 -59.5 24.5t-24.5 59.5zM257 -303q0 36 24 60t60 24t60 -24t24 -60q0 -35 -24 -59.5t-60 -24.5t-60 24.5t-24 59.5zM498 -427q0 36 24 60t60 24q35 0 59.5 -24t24.5 -60 q0 -35 -24.5 -59.5t-59.5 -24.5q-36 0 -60 24.5t-24 59.5z" />
<glyph unicode="&#x5bc;" horiz-adv-x="341" d="M89 578q0 33 22.5 58.5t61.5 25.5q32 0 58 -23t26 -61q0 -36 -24.5 -60t-59.5 -24q-36 0 -60 23.5t-24 60.5z" />
<glyph unicode="&#x5bd;" d="M289 -51h104v-380h-104v380z" />
<glyph unicode="&#x5be;" horiz-adv-x="803" d="M105 834v227h594v-227h-594z" />
<glyph unicode="&#x5bf;" d="M120 1254v148h442v-148h-442z" />
<glyph unicode="&#x5c0;" horiz-adv-x="563" d="M185 -15v1291h193v-1291h-193z" />
<glyph unicode="&#x5c1;" d="M754 1306q0 48 33.5 76.5t75.5 28.5q51 0 80 -31t29 -74q0 -42 -28.5 -73t-80.5 -31q-46 0 -77.5 30t-31.5 74z" />
<glyph unicode="&#x5c2;" d="M-277 1306q0 48 33 76.5t76 28.5q49 0 79 -31.5t30 -74.5q-2 -44 -32.5 -73.5t-76.5 -29.5t-77.5 30t-31.5 74z" />
<glyph unicode="&#x5c3;" horiz-adv-x="569" d="M138 548v287h297v-287h-297zM139 0v287h297v-287h-297z" />
<glyph unicode="&#x5d0;" horiz-adv-x="1264" d="M131 0v452q0 139 59.5 211.5t169.5 70.5l-218 325h283l362 -537q9 -11 22 -17.5t21 -5.5q65 5 65 81v256h-89v223h331v-458q0 -135 -59 -199t-172 -58l231 -344h-284l-365 545l1 -1q-11 15 -28 25t-30 6q-55 -11 -55 -68v-282h91v-225h-336z" />
<glyph unicode="&#x5d1;" horiz-adv-x="1098" d="M107 0v228h542v508q0 52 -21 73.5t-74 21.5h-447v228h457q189 0 262.5 -67t73.5 -248v-516h144v-228h-937z" />
<glyph unicode="&#x5d2;" horiz-adv-x="827" d="M56 1v240h82q67 0 117.5 24t80 65.5t44 92t14.5 108.5v260q0 13 -1.5 20.5t-8.5 13.5t-20 6h-189v228h236q135 0 188 -57.5t53 -182.5v-431q0 -60 9 -122t22 -107.5t26.5 -82.5t22.5 -56l9 -19h-243q-26 32 -42 106.5t-18 132.5l-3 59q-21 -135 -114.5 -216.5 t-231.5 -81.5h-33z" />
<glyph unicode="&#x5d3;" horiz-adv-x="1057" d="M47 831v228h911v-228h-132v-831h-260v831h-519z" />
<glyph unicode="&#x5d4;" horiz-adv-x="1214" d="M153 833v227h888v-1059h-263v832h-625zM166 1v615h261v-615h-261z" />
<glyph unicode="&#x5d5;" horiz-adv-x="639" d="M97 831v228h392v-1059h-265v831h-127z" />
<glyph unicode="&#x5d6;" horiz-adv-x="862" d="M101 832v227h675v-227h-153q-70 0 -105.5 -48.5t-18.5 -122.5l158 -661h-275l-115 503q-29 127 2.5 213t126.5 116h-295z" />
<glyph unicode="&#x5d7;" horiz-adv-x="1271" d="M117 831v228h1033v-228h-92v-831h-261v835h-323v-835h-262v831h-95z" />
<glyph unicode="&#x5d8;" horiz-adv-x="1250" d="M153 443v617h257v-617q0 -229 207 -229q216 0 216 229v396h-244v221h500v-598q0 -478 -472 -478q-218 0 -341 118t-123 341z" />
<glyph unicode="&#x5d9;" horiz-adv-x="669" d="M97 832v227h445v-641h-260v414h-185z" />
<glyph unicode="&#x5da;" horiz-adv-x="995" d="M72 832v228h432q184 0 269 -90.5t85 -302.5v-994h-262v1007q0 87 -29 119.5t-111 32.5h-384z" />
<glyph unicode="&#x5db;" horiz-adv-x="1129" d="M111 0v227h357q53 0 90.5 5.5t64.5 21t43 35.5t25.5 56t12.5 76t3 101v309h-596v228h859v-520q0 -172 -15 -257.5t-73 -149.5q-73 -86 -156 -109t-262 -23h-353z" />
<glyph unicode="&#x5dc;" horiz-adv-x="1061" d="M87 834v458h248v-233h609v-211l-374 -848h-279l364 834h-568z" />
<glyph unicode="&#x5dd;" horiz-adv-x="1265" d="M100 831v228h758q126 0 183.5 -60.5t57.5 -180.5v-818h-888v831h-111zM467 225h375v570q0 38 -38 38h-337v-608z" />
<glyph unicode="&#x5de;" horiz-adv-x="1281" d="M90 1059h256l65 -190l24 -107q11 31 25.5 60.5t25.5 49t12 22.5q31 66 80 107.5t108.5 55t123.5 7t132 -31.5q77 -29 131 -116t54 -209v-707h-489v226h237v504q0 45 -30 74.5t-68 29.5q-76 0 -106 -75l-320 -759h-255l207 493z" />
<glyph unicode="&#x5df;" horiz-adv-x="596" d="M56 832v228h285q57 0 83 -22.5t26 -82.5v-1297h-264v1174h-130z" />
<glyph unicode="&#x5e0;" horiz-adv-x="766" d="M77 0v227h281v558q0 46 -34 46h-171v228h215q146 0 199.5 -52.5t53.5 -203.5v-803h-544z" />
<glyph unicode="&#x5e1;" horiz-adv-x="1275" d="M125 833v227h1014v-614q0 -229 -118.5 -345.5t-340.5 -116.5q-223 0 -341.5 116.5t-118.5 345.5v387h-95zM471 438q0 -236 209 -236q207 0 207 236v402h-416v-402z" />
<glyph unicode="&#x5e2;" horiz-adv-x="1166" d="M32 27l353 162q-38 159 -152 646h-110v224h244q41 0 60.5 -18.5t29.5 -61.5l161 -689q95 52 113 66q49 37 59 102q5 29 5 69v309h-93v223h341v-564q-1 -75 -20.5 -133t-59.5 -103t-90.5 -79t-125.5 -68q-130 -60 -336 -152.5t-294 -133.5z" />
<glyph unicode="&#x5e3;" horiz-adv-x="1116" d="M111 369v691h521q183 0 262.5 -85.5t79.5 -298.5v-1001h-260v1009q0 87 -27.5 119t-108.5 32h-225v-252h189v-214h-431z" />
<glyph unicode="&#x5e4;" horiz-adv-x="1200" d="M153 0v227h514q84 0 117.5 45t33.5 149v224q0 104 -33.5 148t-117.5 44h-271v-213h248v-193h-491v628h523q211 0 305.5 -99t94.5 -314v-231q0 -216 -94.5 -315.5t-305.5 -99.5h-523z" />
<glyph unicode="&#x5e5;" horiz-adv-x="1068" d="M16 1060h287l261 -489q18 -38 57 -38q29 0 46 29t17 66v204h-109v228h360v-458q0 -107 -74 -184.5t-182 -77.5l348 -665h-273z" />
<glyph unicode="&#x5e6;" horiz-adv-x="1213" d="M35 1059h311l365 -471q17 -26 45 -33t44 2q53 21 53 107v172h-101v223h342v-420q0 -125 -60 -187t-170 -62l172 -208v-182h-938v227h600z" />
<glyph unicode="&#x5e7;" horiz-adv-x="1232" d="M153 832v227h912v-662q0 -110 -19.5 -182.5t-67 -122t-125.5 -71t-196 -21.5h-74v227h89q66 0 98 30.5t32 98.5v476h-649zM159 -342v985h262v-985h-262z" />
<glyph unicode="&#x5e8;" horiz-adv-x="1007" d="M59 831v228h277q184 0 277.5 -24t164.5 -107q57 -67 71.5 -152.5t14.5 -255.5v-520h-262v537q0 93 -8.5 147t-32.5 85l1 -1q-31 38 -83 50.5t-140 12.5h-280z" />
<glyph unicode="&#x5e9;" horiz-adv-x="1473" d="M157 350v709h256v-718q0 -53 37.5 -85.5t101.5 -32.5h364q65 0 102.5 32.5t37.5 85.5v718h257v-709q0 -157 -98.5 -253.5t-294.5 -96.5h-380q-189 0 -286 97t-97 253zM614 440v619h246v-692h-172q-36 0 -55 15t-19 58z" />
<glyph unicode="&#x5ea;" horiz-adv-x="1282" d="M71 0v227h178v604h-114v228h970v-1059h-264v834h-337v-694q0 -81 -37.5 -110.5t-102.5 -29.5h-293z" />
<glyph unicode="&#x5f0;" horiz-adv-x="1278" d="M736 831v228h392v-1059h-265v831h-127zM97 831v228h392v-1059h-265v831h-127z" />
<glyph unicode="&#x5f1;" horiz-adv-x="1308" d="M766 831v228h392v-1059h-265v831h-127zM97 832v227h445v-641h-260v414h-185z" />
<glyph unicode="&#x5f2;" horiz-adv-x="1338" d="M766 832v227h445v-641h-260v414h-185zM97 832v227h445v-641h-260v414h-185z" />
<glyph unicode="&#x2000;" horiz-adv-x="1024" />
<glyph unicode="&#x2001;" horiz-adv-x="2048" />
<glyph unicode="&#x2002;" horiz-adv-x="1024" />
<glyph unicode="&#x2003;" horiz-adv-x="2048" />
<glyph unicode="&#x2004;" />
<glyph unicode="&#x2005;" horiz-adv-x="512" />
<glyph unicode="&#x2006;" horiz-adv-x="341" />
<glyph unicode="&#x2007;" horiz-adv-x="1098" />
<glyph unicode="&#x2008;" horiz-adv-x="585" />
<glyph unicode="&#x2009;" horiz-adv-x="204" />
<glyph unicode="&#x200a;" horiz-adv-x="20" />
<glyph unicode="&#x200b;" horiz-adv-x="0" />
<glyph unicode="&#x200c;" horiz-adv-x="0" />
<glyph unicode="&#x200d;" horiz-adv-x="0" />
<glyph unicode="&#x200e;" />
<glyph unicode="&#x200f;" />
<glyph unicode="&#x2010;" horiz-adv-x="894" d="M65 445v214h759v-214h-759z" />
<glyph unicode="&#x2011;" horiz-adv-x="894" d="M65 445v214h759v-214h-759z" />
<glyph unicode="&#x2012;" horiz-adv-x="1098" d="M65 445v214h963v-214h-963z" />
<glyph unicode="&#x2013;" horiz-adv-x="1257" d="M57 447v172h1135v-172h-1135z" />
<glyph unicode="&#x2014;" horiz-adv-x="2163" d="M84 472v137h1994v-137h-1994z" />
<glyph unicode="&#x2015;" horiz-adv-x="2048" d="M88 438v186h1873v-186h-1873z" />
<glyph unicode="&#x2016;" horiz-adv-x="1064" d="M710 -325v1708h170v-1708h-170zM178 -325v1708h170v-1708h-170z" />
<glyph unicode="&#x2018;" horiz-adv-x="428" d="M50 741l71 551h217l-1 -243l-140 -308h-147z" />
<glyph unicode="&#x2019;" horiz-adv-x="425" d="M50 741l71 551h217l-1 -243l-140 -308h-147z" />
<glyph unicode="&#x201a;" horiz-adv-x="428" d="M50 741l71 551h217l-1 -243l-140 -308h-147z" />
<glyph unicode="&#x201c;" horiz-adv-x="731" d="M66 742l72 551h179l-1 -246l-110 -305h-140zM378 742l72 551h180l-1 -246l-110 -305h-141z" />
<glyph unicode="&#x201d;" horiz-adv-x="732" d="M66 742l72 551h179l-1 -246l-110 -305h-140zM378 742l72 551h180l-1 -246l-110 -305h-141z" />
<glyph unicode="&#x201e;" horiz-adv-x="727" d="M66 742l72 551h179l-1 -246l-110 -305h-140zM378 742l72 551h180l-1 -246l-110 -305h-141z" />
<glyph unicode="&#x2024;" horiz-adv-x="585" d="M145 -1v272h291v-272h-291z" />
<glyph unicode="&#x2025;" horiz-adv-x="1170" d="M730 -1v272h291v-272h-291zM145 -1v272h291v-272h-291z" />
<glyph unicode="&#x2026;" horiz-adv-x="1836" d="M124 -1v272h291v-272h-291zM744 -1v272h291v-272h-291zM1414 -1v272h291v-272h-291z" />
<glyph unicode="&#x202a;" horiz-adv-x="0" />
<glyph unicode="&#x202f;" horiz-adv-x="302" />
<glyph unicode="&#x2032;" horiz-adv-x="410" d="M51 741l71 551h217l-1 -243l-140 -308h-147z" />
<glyph unicode="&#x2033;" horiz-adv-x="820" d="M461 741l71 551h217l-1 -243l-140 -308h-147zM51 741l71 551h217l-1 -243l-140 -308h-147z" />
<glyph unicode="&#x2034;" horiz-adv-x="1230" d="M871 741l71 551h217l-1 -243l-140 -308h-147zM461 741l71 551h217l-1 -243l-140 -308h-147zM51 741l71 551h217l-1 -243l-140 -308h-147z" />
<glyph unicode="&#x2035;" horiz-adv-x="428" d="M50 741l71 551h217l-1 -243l-140 -308h-147z" />
<glyph unicode="&#x2036;" horiz-adv-x="856" d="M478 741l71 551h217l-1 -243l-140 -308h-147zM50 741l71 551h217l-1 -243l-140 -308h-147z" />
<glyph unicode="&#x2037;" horiz-adv-x="1284" d="M906 741l71 551h217l-1 -243l-140 -308h-147zM478 741l71 551h217l-1 -243l-140 -308h-147zM50 741l71 551h217l-1 -243l-140 -308h-147z" />
<glyph unicode="&#x2039;" horiz-adv-x="1062" d="M102 405v159l850 420v-274l-488 -228l487 -226l1 -271z" />
<glyph unicode="&#x203a;" horiz-adv-x="1076" d="M138 -15l1 271l487 226l-488 228v274l850 -420v-159z" />
<glyph unicode="&#x203c;" horiz-adv-x="1038" d="M615 0v279h324v-279h-324zM645 457v604h264v-604h-264zM96 0v279h324v-279h-324zM126 457v604h264v-604h-264z" />
<glyph unicode="&#x203e;" horiz-adv-x="707" d="M-9 1155v236h724v-236h-724z" />
<glyph unicode="&#x2047;" horiz-adv-x="1868" d="M1031 839v222h478q171 0 235 -93q51 -75 36 -166t-90 -157q-32 -28 -104.5 -87t-107.5 -90v-75h-289v118l332 267q22 20 14.5 40.5t-40.5 20.5h-464zM1169 0v257h331v-257h-331zM97 839v222h478q171 0 235 -93q51 -75 36 -166t-90 -157q-32 -28 -104.5 -87t-107.5 -90 v-75h-289v118l332 267q22 20 14.5 40.5t-40.5 20.5h-464zM235 0v257h331v-257h-331z" />
<glyph unicode="&#x2048;" horiz-adv-x="1453" d="M1030 0v279h324v-279h-324zM1060 457v604h264v-604h-264zM97 839v222h478q171 0 235 -93q51 -75 36 -166t-90 -157q-32 -28 -104.5 -87t-107.5 -90v-75h-289v118l332 267q22 20 14.5 40.5t-40.5 20.5h-464zM235 0v257h331v-257h-331z" />
<glyph unicode="&#x2049;" horiz-adv-x="1453" d="M616 839v222h478q171 0 235 -93q51 -75 36 -166t-90 -157q-32 -28 -104.5 -87t-107.5 -90v-75h-289v118l332 267q22 20 14.5 40.5t-40.5 20.5h-464zM754 0v257h331v-257h-331zM96 0v279h324v-279h-324zM126 457v604h264v-604h-264z" />
<glyph unicode="&#x2057;" horiz-adv-x="1640" d="M1281 741l71 551h217l-1 -243l-140 -308h-147zM871 741l71 551h217l-1 -243l-140 -308h-147zM461 741l71 551h217l-1 -243l-140 -308h-147zM51 741l71 551h217l-1 -243l-140 -308h-147z" />
<glyph unicode="&#x205f;" horiz-adv-x="377" />
<glyph unicode="&#x2060;" horiz-adv-x="0" />
<glyph unicode="&#x20ac;" horiz-adv-x="1060" d="M93 368v105h101v110h-101v105h101v73q0 301 351 301h360v-188h-360q-86 0 -122.5 -29t-36.5 -96v-61h301l-1 -105h-300v-110h301l-1 -105h-300v-54q0 -67 36.5 -96t122.5 -29h360v-188h-360q-185 0 -268 70t-83 244v53h-101z" />
<glyph unicode="&#x2122;" horiz-adv-x="2464" d="M1156 0v1061h362l213 -752l220 753l350 -1v-1061h-220v834l-243 -834h-219l-244 832v-832h-219zM64 834v227h865v-227h-292v-834h-263v834h-310z" />
<glyph unicode="&#xe000;" horiz-adv-x="1060" d="M0 1060h1060v-1060h-1060v1060z" />
<glyph unicode="&#xfb00;" horiz-adv-x="2032" d="M1173 0v1061h768v-228h-511v-217h452v-226h-448v-390h-261zM157 0v1061h768v-228h-511v-217h452v-226h-448v-390h-261z" />
<glyph unicode="&#xfb01;" horiz-adv-x="1578" d="M1169 0v1061h263v-1061h-263zM157 0v1061h768v-228h-511v-217h452v-226h-448v-390h-261z" />
<glyph unicode="&#xfb02;" horiz-adv-x="1985" d="M1173 231v830h264v-796q0 -38 32 -38h487v-227h-524q-117 0 -188 65t-71 166zM157 0v1061h768v-228h-511v-217h452v-226h-448v-390h-261z" />
<glyph unicode="&#xfb03;" horiz-adv-x="2594" d="M2185 0v1061h263v-1061h-263zM1173 0v1061h768v-228h-511v-217h452v-226h-448v-390h-261zM157 0v1061h768v-228h-511v-217h452v-226h-448v-390h-261z" />
<glyph unicode="&#xfb04;" horiz-adv-x="3001" d="M2189 231v830h264v-796q0 -38 32 -38h487v-227h-524q-117 0 -188 65t-71 166zM1173 0v1061h768v-228h-511v-217h452v-226h-448v-390h-261zM157 0v1061h768v-228h-511v-217h452v-226h-448v-390h-261z" />
<glyph unicode="&#xfb06;" horiz-adv-x="2083" d="M1163 834v227h865v-227h-292v-834h-263v834h-310zM114 779q0 140 86 211t236 71h508v-227h-472q-44 0 -65 -12.5t-21 -48.5q0 -9 6 -18.5t18.5 -19t25.5 -17.5t35 -18t39 -17.5t44.5 -19.5t44.5 -20q108 -49 170.5 -83t111.5 -74.5t69.5 -83.5t23.5 -101q1 -14 1 -28 q0 -119 -70 -192q-78 -81 -225 -81h-542v228h471q26 0 38.5 1t27 6.5t20.5 18t7 33.5q0 17 -10 32.5t-34.5 31t-43 25.5t-59 28.5t-58.5 27.5q-31 15 -82.5 39t-77 36.5t-63.5 33t-57 35.5t-42.5 38t-34.5 45.5t-18.5 53t-7.5 66.5z" />
<glyph unicode="&#xfb1d;" horiz-adv-x="581" d="M-56 585q0 -37 24 -60.5t60 -23.5q35 0 59.5 24t24.5 60q0 38 -26 61t-58 23q-39 0 -61.5 -25.5t-22.5 -58.5zM56 832v227h445v-641h-260v414h-185z" />
<glyph unicode="&#xfb1f;" horiz-adv-x="2020" d="M1448 832v227h445v-641h-260v414h-185zM779 832v227h445v-641h-260v414h-185zM140 -251h402v-104h-402v104z" />
<glyph unicode="&#xfb20;" horiz-adv-x="1166" d="M32 27l353 162q-38 159 -152 646h-110v224h244q41 0 60.5 -18.5t29.5 -61.5l161 -689q95 52 113 66q49 37 59 102q5 29 5 69v309h-93v223h341v-564q-1 -75 -20.5 -133t-59.5 -103t-90.5 -79t-125.5 -68q-130 -60 -336 -152.5t-294 -133.5z" />
<glyph unicode="&#xfb21;" horiz-adv-x="1264" d="M131 0v452q0 139 59.5 211.5t169.5 70.5l-218 325h283l362 -537q9 -11 22 -17.5t21 -5.5q65 5 65 81v256h-89v223h331v-458q0 -135 -59 -199t-172 -58l231 -344h-284l-365 545l1 -1q-11 15 -28 25t-30 6q-55 -11 -55 -68v-282h91v-225h-336z" />
<glyph unicode="&#xfb22;" horiz-adv-x="1057" d="M47 831v228h911v-228h-132v-831h-260v831h-519z" />
<glyph unicode="&#xfb23;" horiz-adv-x="1214" d="M153 833v227h888v-1059h-263v832h-625zM166 1v615h261v-615h-261z" />
<glyph unicode="&#xfb24;" horiz-adv-x="1129" d="M111 0v227h357q53 0 90.5 5.5t64.5 21t43 35.5t25.5 56t12.5 76t3 101v309h-596v228h859v-520q0 -172 -15 -257.5t-73 -149.5q-73 -86 -156 -109t-262 -23h-353z" />
<glyph unicode="&#xfb25;" horiz-adv-x="1061" d="M87 834v458h248v-233h609v-211l-374 -848h-279l364 834h-568z" />
<glyph unicode="&#xfb26;" horiz-adv-x="1265" d="M100 831v228h758q126 0 183.5 -60.5t57.5 -180.5v-818h-888v831h-111zM467 225h375v570q0 38 -38 38h-337v-608z" />
<glyph unicode="&#xfb27;" horiz-adv-x="1007" d="M59 831v228h277q184 0 277.5 -24t164.5 -107q57 -67 71.5 -152.5t14.5 -255.5v-520h-262v537q0 93 -8.5 147t-32.5 85l1 -1q-31 38 -83 50.5t-140 12.5h-280z" />
<glyph unicode="&#xfb28;" horiz-adv-x="1282" d="M71 0v227h178v604h-114v228h970v-1059h-264v834h-337v-694q0 -81 -37.5 -110.5t-102.5 -29.5h-293z" />
<glyph unicode="&#xfb29;" horiz-adv-x="1014" d="M98 439v173h310v313h183v-313h310v-173h-310v-309h-183v309h-310z" />
<glyph unicode="&#xfb2a;" horiz-adv-x="1422" d="M131 350v709h256v-718q0 -53 37.5 -85.5t101.5 -32.5h364q65 0 102.5 32.5t37.5 85.5v718h257v-709q0 -157 -98.5 -253.5t-294.5 -96.5h-380q-189 0 -286 97t-97 253zM588 440v619h246v-692h-172q-36 0 -55 15t-19 58zM1150 1346q0 35 24 59.5t60 24.5q33 0 58.5 -23.5 t25.5 -60.5q0 -36 -24 -60t-60 -24q-35 0 -59.5 24t-24.5 60z" />
<glyph unicode="&#xfb2b;" horiz-adv-x="1422" d="M107 1346q0 35 24 59.5t60 24.5q33 0 58.5 -23.5t25.5 -60.5q0 -36 -24 -60t-60 -24q-35 0 -59.5 24t-24.5 60zM137 350v709h256v-718q0 -53 37.5 -85.5t101.5 -32.5h364q65 0 102.5 32.5t37.5 85.5v718h257v-709q0 -157 -98.5 -253.5t-294.5 -96.5h-380q-189 0 -286 97 t-97 253zM594 440v619h246v-692h-172q-36 0 -55 15t-19 58z" />
<glyph unicode="&#xfb2c;" horiz-adv-x="1422" d="M143 350v709h256v-718q0 -53 37.5 -85.5t101.5 -32.5h364q65 0 102.5 32.5t37.5 85.5v718h257v-709q0 -157 -98.5 -253.5t-294.5 -96.5h-380q-189 0 -286 97t-97 253zM600 440v619h246v-692h-172q-36 0 -55 15t-19 58zM865 743q0 25 17 42.5t43 17.5q23 0 41 -16.5 t18 -43.5q0 -25 -17 -42t-42 -17q-26 0 -43 17t-17 42zM1101 1346q0 35 24 59.5t60 24.5q33 0 58.5 -23.5t25.5 -60.5q0 -36 -24 -60t-60 -24q-35 0 -59.5 24t-24.5 60z" />
<glyph unicode="&#xfb2d;" horiz-adv-x="1458" d="M153 350v709h256v-718q0 -53 37.5 -85.5t101.5 -32.5h364q65 0 102.5 32.5t37.5 85.5v718h257v-709q0 -157 -98.5 -253.5t-294.5 -96.5h-380q-189 0 -286 97t-97 253zM207 1326q0 35 24 59.5t60 24.5q33 0 58.5 -23.5t25.5 -60.5q0 -36 -24 -60t-60 -24q-35 0 -59.5 24 t-24.5 60zM610 440v619h246v-692h-172q-36 0 -55 15t-19 58zM895 739q0 25 17 42.5t43 17.5q23 0 41 -16.5t18 -43.5q0 -25 -17 -42t-42 -17q-26 0 -43 17t-17 42z" />
<glyph unicode="&#xfb2e;" horiz-adv-x="1946" d="M813 0v452q0 139 59.5 211.5t169.5 70.5l-218 325h283l362 -537q9 -11 22 -17.5t21 -5.5q65 5 65 81v256h-89v223h331v-458q0 -135 -59 -199t-172 -58l231 -344h-284l-365 545l1 -1q-11 15 -28 25t-30 6q-55 -11 -55 -68v-282h91v-225h-336zM140 -251h402v-104h-402v104z " />
<glyph unicode="&#xfb2f;" horiz-adv-x="1946" d="M813 0v452q0 139 59.5 211.5t169.5 70.5l-218 325h283l362 -537q9 -11 22 -17.5t21 -5.5q65 5 65 81v256h-89v223h331v-458q0 -135 -59 -199t-172 -58l231 -344h-284l-365 545l1 -1q-11 15 -28 25t-30 6q-55 -11 -55 -68v-282h91v-225h-336zM140 -198h402v-104h-142v-168 h-116v168h-144v104z" />
<glyph unicode="&#xfb30;" horiz-adv-x="1605" d="M472 0v452q0 139 59.5 211.5t169.5 70.5l-218 325h283l362 -537q9 -11 22 -17.5t21 -5.5q65 5 65 81v256h-89v223h331v-458q0 -135 -59 -199t-172 -58l231 -344h-284l-365 545l1 -1q-11 15 -28 25t-30 6q-55 -11 -55 -68v-282h91v-225h-336zM89 578q0 33 22.5 58.5 t61.5 25.5q32 0 58 -23t26 -61q0 -36 -24.5 -60t-59.5 -24q-36 0 -60 23.5t-24 60.5z" />
<glyph unicode="&#xfb31;" horiz-adv-x="1111" d="M79 0v228h542v508q0 52 -21 73.5t-74 21.5h-447v228h457q189 0 262.5 -67t73.5 -248v-516h144v-228h-937zM239 558q0 -37 24 -60.5t60 -23.5q35 0 59.5 24t24.5 60q0 38 -26 61t-58 23q-39 0 -61.5 -25.5t-22.5 -58.5z" />
<glyph unicode="&#xfb32;" horiz-adv-x="817" d="M61 1v240h82q67 0 117.5 24t80 65.5t44 92t14.5 108.5v260q0 13 -1.5 20.5t-8.5 13.5t-20 6h-189v228h236q135 0 188 -57.5t53 -182.5v-431q0 -95 22.5 -192t44.5 -146l22 -49h-243q-26 32 -42 106.5t-19 132.5l-2 59q-21 -135 -114.5 -216.5t-231.5 -81.5h-33zM66 578 q0 -37 24 -60.5t60 -23.5q35 0 59.5 24t24.5 60q0 38 -26 61t-58 23q-39 0 -61.5 -25.5t-22.5 -58.5z" />
<glyph unicode="&#xfb33;" horiz-adv-x="1057" d="M57 831v228h911v-228h-132v-831h-260v831h-519zM273 578q0 -37 24 -60.5t60 -23.5q35 0 59.5 24t24.5 60q0 38 -26 61t-58 23q-39 0 -61.5 -25.5t-22.5 -58.5z" />
<glyph unicode="&#xfb34;" horiz-adv-x="1207" d="M155 833v227h888v-1059h-263v832h-625zM168 1v615h261v-615h-261zM524 607q0 -37 24 -60.5t60 -23.5q35 0 59.5 24t24.5 60q0 38 -26 61t-58 23q-39 0 -61.5 -25.5t-22.5 -58.5z" />
<glyph unicode="&#xfb35;" horiz-adv-x="602" d="M-52 615q0 -36 24.5 -60t59.5 -24q36 0 60 24t24 60q0 37 -25.5 60.5t-58.5 23.5q-36 0 -60 -24.5t-24 -59.5zM72 831v228h392v-1059h-265v831h-127z" />
<glyph unicode="&#xfb36;" horiz-adv-x="842" d="M-5 506q0 -36 24.5 -60t59.5 -24q36 0 60 24t24 60q0 37 -25.5 60.5t-58.5 23.5q-36 0 -60 -24.5t-24 -59.5zM76 832v227h675v-227h-153q-70 0 -105.5 -48.5t-18.5 -122.5l158 -661h-275l-115 503q-29 127 2.5 213t126.5 116h-295z" />
<glyph unicode="&#xfb38;" horiz-adv-x="1168" d="M110 443v617h257v-617q0 -229 207 -229q216 0 216 229v396h-244v221h500v-598q0 -478 -472 -478q-218 0 -341 118t-123 341zM484 564q0 -37 24 -60.5t60 -23.5q35 0 59.5 24t24.5 60q0 38 -26 61t-58 23q-39 0 -61.5 -25.5t-22.5 -58.5z" />
<glyph unicode="&#xfb39;" horiz-adv-x="648" d="M-8 672q0 -36 24.5 -60t59.5 -24q36 0 60 24t24 60q0 37 -25.5 60.5t-58.5 23.5q-36 0 -60 -24.5t-24 -59.5zM92 832v227h445v-641h-260v414h-185z" />
<glyph unicode="&#xfb3a;" horiz-adv-x="965" d="M56 832v228h432q184 0 269 -90.5t85 -302.5v-994h-262v1007q0 87 -29 119.5t-111 32.5h-384zM213 520q0 -37 24 -60.5t60 -23.5q35 0 59.5 24t24.5 60q0 38 -26 61t-58 23q-39 0 -61.5 -25.5t-22.5 -58.5z" />
<glyph unicode="&#xfb3b;" horiz-adv-x="1091" d="M72 0v227h357q53 0 90.5 5.5t64.5 21t43 35.5t25.5 56t12.5 76t3 101v309h-596v228h859v-520q0 -172 -15 -257.5t-73 -149.5q-73 -86 -156 -109t-262 -23h-353zM253 554q0 -37 24 -60.5t60 -23.5q35 0 59.5 24t24.5 60q0 38 -26 61t-58 23q-39 0 -61.5 -25.5t-22.5 -58.5 z" />
<glyph unicode="&#xfb3c;" horiz-adv-x="1024" d="M74 834v458h248v-233h609v-211l-374 -848h-279l364 834h-568zM210 632q0 -37 24 -60.5t60 -23.5q35 0 59.5 24t24.5 60q0 38 -26 61t-58 23q-39 0 -61.5 -25.5t-22.5 -58.5z" />
<glyph unicode="&#xfb3e;" horiz-adv-x="1246" d="M62 1059h256l65 -190l24 -107q11 31 25.5 60.5t25.5 49t12 22.5q31 66 80 107.5t108.5 55t123.5 7t132 -31.5q77 -29 131 -116t54 -209v-707h-489v226h237v504q0 45 -30 74.5t-68 29.5q-76 0 -106 -75l-320 -759h-255l207 493zM576 423q0 -37 24 -60.5t60 -23.5 q35 0 59.5 24t24.5 60q0 38 -26 61t-58 23q-39 0 -61.5 -25.5t-22.5 -58.5z" />
<glyph unicode="&#xfb40;" horiz-adv-x="779" d="M66 568q0 -37 24 -60.5t60 -23.5q35 0 59.5 24t24.5 60q0 38 -26 61t-58 23q-39 0 -61.5 -25.5t-22.5 -58.5zM88 0v227h281v558q0 46 -34 46h-171v228h215q146 0 199.5 -52.5t53.5 -203.5v-803h-544z" />
<glyph unicode="&#xfb41;" horiz-adv-x="1243" d="M100 833v227h1014v-614q0 -229 -118.5 -345.5t-340.5 -116.5q-223 0 -341.5 116.5t-118.5 345.5v387h-95zM446 438q0 -236 209 -236q207 0 207 236v402h-416v-402zM553 555q0 -36 24.5 -60t59.5 -24q36 0 60 24t24 60q0 37 -25.5 60.5t-58.5 23.5q-36 0 -60 -24.5 t-24 -59.5z" />
<glyph unicode="&#xfb43;" horiz-adv-x="1457" d="M452 369v691h521q183 0 262.5 -85.5t79.5 -298.5v-1001h-260v1009q0 87 -27.5 119t-108.5 32h-225v-252h189v-214h-431zM89 578q0 33 22.5 58.5t61.5 25.5q32 0 58 -23t26 -61q0 -36 -24.5 -60t-59.5 -24q-36 0 -60 23.5t-24 60.5z" />
<glyph unicode="&#xfb44;" horiz-adv-x="1148" d="M128 0v227h514q84 0 117.5 45t33.5 149v224q0 104 -33.5 148t-117.5 44h-271v-213h248v-193h-491v628h523q211 0 305.5 -99t94.5 -314v-231q0 -216 -94.5 -315.5t-305.5 -99.5h-523zM593 701q0 -26 18.5 -44t44.5 -18q27 0 44.5 18t17.5 44q0 29 -18.5 46t-43.5 17 q-27 0 -45 -18t-18 -45z" />
<glyph unicode="&#xfb46;" horiz-adv-x="1173" d="M18 1059h311l365 -471q17 -26 45 -33t44 2q53 21 53 107v172h-101v223h342v-420q0 -125 -60 -187t-170 -62l172 -208v-182h-938v227h600zM135 440q0 -37 24 -60.5t60 -23.5q35 0 59.5 24t24.5 60q0 38 -26 61t-58 23q-39 0 -61.5 -25.5t-22.5 -58.5z" />
<glyph unicode="&#xfb47;" horiz-adv-x="1209" d="M156 832v227h912v-662q0 -110 -19.5 -182.5t-67 -122t-125.5 -71t-196 -21.5h-74v227h89q66 0 98 30.5t32 98.5v476h-649zM162 -342v985h262v-985h-262zM526 601q0 -31 21.5 -52.5t52.5 -21.5t52.5 21t21.5 53q0 33 -22.5 53.5t-51.5 20.5q-34 0 -54 -22.5t-20 -51.5z " />
<glyph unicode="&#xfb48;" horiz-adv-x="1348" d="M400 831v228h277q184 0 277.5 -24t164.5 -107q57 -67 71.5 -152.5t14.5 -255.5v-520h-262v537q0 93 -8.5 147t-32.5 85l1 -1q-31 38 -83 50.5t-140 12.5h-280zM89 578q0 33 22.5 58.5t61.5 25.5q32 0 58 -23t26 -61q0 -36 -24.5 -60t-59.5 -24q-36 0 -60 23.5t-24 60.5z " />
<glyph unicode="&#xfb49;" horiz-adv-x="1451" d="M143 350v709h256v-718q0 -53 37.5 -85.5t101.5 -32.5h364q65 0 102.5 32.5t37.5 85.5v718h257v-709q0 -157 -98.5 -253.5t-294.5 -96.5h-380q-189 0 -286 97t-97 253zM600 440v619h246v-692h-172q-36 0 -55 15t-19 58zM865 743q0 -25 17 -42t43 -17q25 0 42 17t17 42 q0 27 -18 43.5t-41 16.5q-26 0 -43 -17.5t-17 -42.5z" />
<glyph unicode="&#xfb4a;" horiz-adv-x="1268" d="M68 0v227h178v604h-114v228h970v-1059h-264v834h-337v-694q0 -81 -37.5 -110.5t-102.5 -29.5h-293zM596 532q0 -37 24 -60.5t60 -23.5q35 0 59.5 24t24.5 60q0 38 -26 61t-58 23q-39 0 -61.5 -25.5t-22.5 -58.5z" />
<glyph unicode="&#xfb4b;" horiz-adv-x="610" d="M72 831v228h392v-1059h-265v831h-127zM249 1328q0 35 24 59.5t60 24.5q33 0 58.5 -23.5t25.5 -60.5q0 -36 -24 -60t-60 -24q-35 0 -59.5 24t-24.5 60z" />
<glyph unicode="&#xfb4c;" horiz-adv-x="1780" d="M789 0v228h542v508q0 52 -21 73.5t-74 21.5h-447v228h457q189 0 262.5 -67t73.5 -248v-516h144v-228h-937zM120 1254v148h442v-148h-442z" />
<glyph unicode="&#xfb4d;" horiz-adv-x="1811" d="M793 0v227h357q53 0 90.5 5.5t64.5 21t43 35.5t25.5 56t12.5 76t3 101v309h-596v228h859v-520q0 -172 -15 -257.5t-73 -149.5q-73 -86 -156 -109t-262 -23h-353zM120 1254v148h442v-148h-442z" />
<glyph unicode="&#xfb4e;" horiz-adv-x="1882" d="M835 0v227h514q84 0 117.5 45t33.5 149v224q0 104 -33.5 148t-117.5 44h-271v-213h248v-193h-491v628h523q211 0 305.5 -99t94.5 -314v-231q0 -216 -94.5 -315.5t-305.5 -99.5h-523zM120 1254v148h442v-148h-442z" />
<glyph unicode="&#xfb4f;" horiz-adv-x="2325" d="M1192 0v452q0 139 59.5 211.5t169.5 70.5l-218 325h283l362 -537q9 -11 22 -17.5t21 -5.5q65 5 65 81v256h-89v223h331v-458q0 -135 -59 -199t-172 -58l231 -344h-284l-365 545l1 -1q-11 15 -28 25t-30 6q-55 -11 -55 -68v-282h91v-225h-336zM87 834v458h248v-233h609 v-211l-374 -848h-279l364 834h-568z" />
</font>
</defs>
</svg>
